<?xml version="1.0" encoding="iso-8859-1"?>
<!-- Generator: Adobe Illustrator 16.0.0, SVG Export Plug-In . SVG Version: 6.00 Build 0)  -->
<!DOCTYPE svg PUBLIC "-//W3C//DTD SVG 1.1//EN" "http://www.w3.org/Graphics/SVG/1.1/DTD/svg11.dtd">
<svg version="1.1" id="Capa_1" xmlns="http://www.w3.org/2000/svg" xmlns:xlink="http://www.w3.org/1999/xlink" x="0px" y="0px"
	 width="83.818px" height="83.818px" viewBox="0 0 83.818 83.818" style="enable-background:new 0 0 83.818 83.818;"
	 xml:space="preserve">
<g>
	<g>
		<path d="M41.909,83.818c23.146,0,41.909-18.764,41.909-41.908C83.817,18.764,65.055,0,41.909,0C18.764,0,0.001,18.764,0.001,41.91
			C0.001,65.055,18.765,83.818,41.909,83.818z M15.743,46.396v-3.943V20.207c0-0.553,0.447-1,1-1h50.333c0.554,0,1,0.447,1,1v39.658
			c0,0.553-0.446,1-1,1H33.582h-3.996H16.743c-0.553,0-1-0.447-1-1V46.396z"/>
		<path d="M36.873,55.838h26.281V28.235h-42.49v11.041v6.634v9.928h9.559H36.873z M47.276,38.167
			c-0.468-0.294-0.607-0.911-0.313-1.379c0.295-0.468,0.913-0.607,1.379-0.314l7.5,4.717c0.259,0.162,0.405,0.425,0.444,0.705
			c0.012,0.056,0.004,0.108,0.006,0.165c-0.002,0.056,0.006,0.107-0.006,0.164c-0.039,0.279-0.187,0.543-0.444,0.705l-7.5,4.717
			c-0.165,0.104-0.351,0.152-0.531,0.152c-0.331,0-0.657-0.164-0.848-0.468c-0.294-0.468-0.153-1.085,0.313-1.379l6.189-3.894
			L47.276,38.167z M39.554,46.464l2.875-9.479c0.16-0.528,0.719-0.827,1.247-0.667c0.528,0.16,0.827,0.719,0.667,1.247l-2.875,9.479
			c-0.131,0.433-0.527,0.71-0.957,0.71c-0.096,0-0.193-0.014-0.29-0.043C39.693,47.551,39.394,46.992,39.554,46.464z M27.533,42.18
			c-0.011-0.057-0.004-0.108-0.006-0.164c0.002-0.057-0.005-0.108,0.006-0.165c0.04-0.28,0.187-0.543,0.445-0.705l7.5-4.717
			c0.467-0.292,1.085-0.153,1.379,0.314s0.153,1.085-0.314,1.379l-6.189,3.894l6.189,3.893c0.468,0.294,0.608,0.911,0.314,1.379
			c-0.19,0.303-0.516,0.468-0.848,0.468c-0.182,0-0.366-0.05-0.531-0.153l-7.5-4.717C27.72,42.723,27.573,42.459,27.533,42.18z"/>
		<path d="M33.582,58.865h32.494V21.207H17.743v21.246v3.943v12.469h11.843H33.582z M63.036,22.754h1.166c0.554,0,1,0.447,1,1
			c0,0.553-0.446,1-1,1h-1.166c-0.553,0-1-0.447-1-1C62.036,23.201,62.485,22.754,63.036,22.754z M58.036,22.754h1.166
			c0.554,0,1,0.447,1,1c0,0.553-0.446,1-1,1h-1.166c-0.553,0-1-0.447-1-1C57.036,23.201,57.485,22.754,58.036,22.754z
			 M53.036,22.754h1.166c0.554,0,1,0.447,1,1c0,0.553-0.446,1-1,1h-1.166c-0.553,0-1-0.447-1-1
			C52.036,23.201,52.485,22.754,53.036,22.754z M18.664,56.838V45.91v-6.634V27.235c0-0.553,0.447-1,1-1h44.49c0.553,0,1,0.447,1,1
			v29.603c0,0.553-0.447,1-1,1H36.873h-6.65H19.664C19.112,57.838,18.664,57.391,18.664,56.838z"/>
	</g>
</g>
<g>
</g>
<g>
</g>
<g>
</g>
<g>
</g>
<g>
</g>
<g>
</g>
<g>
</g>
<g>
</g>
<g>
</g>
<g>
</g>
<g>
</g>
<g>
</g>
<g>
</g>
<g>
</g>
<g>
</g>
</svg>
