<?xml version="1.0" encoding="iso-8859-1"?>
<!-- Generator: Adobe Illustrator 18.0.0, SVG Export Plug-In . SVG Version: 6.00 Build 0)  -->
<!DOCTYPE svg PUBLIC "-//W3C//DTD SVG 1.1//EN" "http://www.w3.org/Graphics/SVG/1.1/DTD/svg11.dtd">
<svg version="1.1" id="Capa_1" xmlns="http://www.w3.org/2000/svg" xmlns:xlink="http://www.w3.org/1999/xlink" x="0px" y="0px"
	 viewBox="0 0 490.754 490.754" style="enable-background:new 0 0 490.754 490.754;" xml:space="preserve">
<g>
	<path d="M370.089,301.782c0.394-6.741,0.603-13.703,0.603-20.913c0-60.322-13.371-129.408-35.769-184.805
		C309.876,34.116,278.075,0,245.377,0c-32.699,0-64.5,34.116-89.546,96.064c-22.398,55.396-35.769,124.482-35.769,184.805
		c0,7.21,0.209,14.172,0.603,20.912c-30.707,26.396-50.452,86.68-50.452,154.653c0,2.348,1.903,4.25,4.25,4.25l86.902,0.001
		c-0.624,8.4-0.948,17.02-0.948,25.818c0,2.348,1.903,4.25,4.25,4.25h161.418c0.008,0,0.016,0.001,0.02,0
		c2.348,0,4.25-1.902,4.25-4.25c0-0.141-0.007-0.28-0.02-0.417c-0.01-8.654-0.336-17.134-0.949-25.401h86.904
		c2.348,0,4.25-1.902,4.25-4.25C420.541,388.461,400.795,328.177,370.089,301.782z M163.712,99.25
		c4.452-11.012,9.141-21.119,14.01-30.278c0.158,0.018,0.313,0.048,0.476,0.048h99.334c2.348,0,4.25-1.902,4.25-4.25
		c0-2.348-1.902-4.25-4.25-4.25h-95.11C201.937,27.027,223.988,8.5,245.377,8.5c28.582,0,58.347,33.077,81.665,90.75
		c18.809,46.521,31.132,102.864,34.32,155.27h-48.13c-2.348,0-4.25,1.902-4.25,4.25c0,2.348,1.902,4.25,4.25,4.25h48.571
		c0.254,6.02,0.388,11.978,0.388,17.85c0,59.973-13.869,102.771-41.233,127.379c-13.981-54.174-42.254-90.44-75.582-90.44
		c-33.327,0-61.599,36.267-75.582,90.441c-26.314-23.663-40.144-64.155-41.166-120.563h73.835c2.347,0,4.25-1.902,4.25-4.25
		c0-2.348-1.903-4.25-4.25-4.25h-73.891C128.819,220.299,141.909,153.175,163.712,99.25z M78.739,452.185
		c0.111-9.017,0.585-17.866,1.376-26.498h51.415c2.347,0,4.25-1.902,4.25-4.25c0-2.348-1.903-4.25-4.25-4.25H81
		c5.387-45.335,19.997-83.563,40.488-104.536c4.54,48.334,19.984,83.526,46.091,104.887c-2.41,10.953-4.26,22.545-5.473,34.648
		L78.739,452.185z M168.944,482.254c1.044-83.401,32.663-151.132,72.182-155.692v118.874c0,2.348,1.903,4.25,4.25,4.25
		s4.251-1.902,4.251-4.25V326.561c36.46,4.207,66.191,62.182,71.397,136.626H191.931c-2.347,0-4.25,1.902-4.25,4.25
		c0,2.348,1.903,4.25,4.25,4.25h129.575c0.154,3.493,0.26,7.015,0.304,10.567H168.944z M328.646,452.186
		c-1.213-12.104-3.063-23.695-5.472-34.649c26.106-21.361,41.551-56.553,46.091-104.885c20.491,20.972,35.101,59.199,40.488,104.535
		h-50.293c-2.348,0-4.25,1.902-4.25,4.25c0,2.348,1.902,4.25,4.25,4.25h51.178c0.791,8.632,1.266,17.481,1.376,26.499H328.646z"/>
	<path d="M245.377,274.683c31.751,0,57.583-25.832,57.583-57.583c0-31.751-25.832-57.583-57.583-57.583
		c-31.752,0-57.583,25.832-57.583,57.583C187.794,248.851,213.625,274.683,245.377,274.683z M245.377,168.017
		c27.064,0,49.083,22.019,49.083,49.083c0,27.064-22.019,49.083-49.083,49.083c-27.065,0-49.083-22.019-49.083-49.083
		C196.294,190.035,218.312,168.017,245.377,168.017z"/>
</g>
<g>
</g>
<g>
</g>
<g>
</g>
<g>
</g>
<g>
</g>
<g>
</g>
<g>
</g>
<g>
</g>
<g>
</g>
<g>
</g>
<g>
</g>
<g>
</g>
<g>
</g>
<g>
</g>
<g>
</g>
</svg>
